# xmcd
#
# Track frame offsets:
#	150
#	19836
#	39984
#	56896
#	86576
#	105564
#	121581
#	146757
#	161595
#	176973
#	190045
#	191402
#	215493
#	216371
#	246726
#	268657
#	304131
#
# Disc length: 4386 seconds
#
# Revision: 1
# Processed by: cddbd v1.5PL3 Copyright (c) Steve Scherf et al.
# Submitted via: EasyCDDAExtractor 7.0.5.1
#
DISCID=fd112011
DTITLE=Nathan Hamilton+No deal - Live at JohnT Floor country store
DYEAR=2003
DGENRE=Country
TTITLE0=two penny vengeance
TTITLE1=mercantile store
TTITLE2=15 dollars
TTITLE3=watertown
TTITLE4=bottle in the bathroom
TTITLE5=Black rose
TTITLE6=Tuscola
TTITLE7=Hard gettin by
TTITLE8=cotton dresses
TTITLE9=Waymores blues
TTITLE10=Cash intro
TTITLE11=Cash&Tobacco
TTITLE12=regular intro
TTITLE13=here comes a regular
TTITLE14=dirt in the wound
TTITLE15=bed clothes
TTITLE16=roots
EXTD=
EXTT0=
EXTT1=
EXTT2=
EXTT3=
EXTT4=
EXTT5=
EXTT6=
EXTT7=
EXTT8=
EXTT9=
EXTT10=
EXTT11=
EXTT12=
EXTT13=
EXTT14=
EXTT15=
EXTT16=
PLAYORDER=
